{
  "accessors": [
    {
      "bufferView": 2,
      "componentType": 5126,
      "count": 48,
      "max": [
        0.9247086048126221,
        62.40776824951172,
        0.27741262316703796
      ],
      "min": [
        -0.9247086048126221,
        0.0,
        -0.27741262316703796
      ],
      "type": "VEC3"
    },
    {
      "bufferView": 2,
      "byteOffset": 576,
      "componentType": 5126,
      "count": 48,
      "max": [
        1.0,
        0.0,
        1.0
      ],
      "min": [
        -1.0,
        0.0,
        -1.0
      ],
      "type": "VEC3"
    },
    {
      "bufferView": 1,
      "componentType": 5126,
      "count": 48,
      "max": [
        0.696351170539856,
        0.5993316173553467
      ],
      "min": [
        0.0,
        0.5381534695625305
      ],
      "type": "VEC2"
    },
    {
      "bufferView": 0,
      "componentType": 5125,
      "count": 72,
      "type": "SCALAR"
    },
    {
      "bufferView": 2,
      "byteOffset": 1152,
      "componentType": 5126,
      "count": 70,
      "max": [
        11.91812801361084,
        93.46420288085938,
        1.0
      ],
      "min": [
        -11.91812801361084,
        69.62802124023438,
        0.35629332065582275
      ],
      "type": "VEC3"
    },
    {
      "bufferView": 2,
      "byteOffset": 1992,
      "componentType": 5126,
      "count": 70,
      "max": [
        1.0,
        1.0,
        1.0
      ],
      "min": [
        -1.0,
        -1.0,
        -1.0
      ],
      "type": "VEC3"
    },
    {
      "bufferView": 1,
      "byteOffset": 384,
      "componentType": 5126,
      "count": 70,
      "max": [
        1.0,
        0.6088628768920898
      ],
      "min": [
        0.0,
        1.993118985410547e-06
      ],
      "type": "VEC2"
    },
    {
      "bufferView": 0,
      "byteOffset": 288,
      "componentType": 5125,
      "count": 192,
      "type": "SCALAR"
    },
    {
      "bufferView": 2,
      "byteOffset": 2832,
      "componentType": 5126,
      "count": 164,
      "max": [
        10.34506893157959,
        77.77944946289063,
        0.3567226529121399
      ],
      "min": [
        -10.256155967712402,
        70.93214416503906,
        0.3567226529121399
      ],
      "type": "VEC3"
    },
    {
      "bufferView": 2,
      "byteOffset": 4800,
      "componentType": 5126,
      "count": 164,
      "max": [
        4.91291913817804e-08,
        0.0,
        1.0
      ],
      "min": [
        -5.516624668189252e-08,
        0.0,
        1.0
      ],
      "type": "VEC3"
    },
    {
      "bufferView": 1,
      "byteOffset": 944,
      "componentType": 5126,
      "count": 164,
      "max": [
        0.6288582682609558,
        0.0764043778181076
      ],
      "min": [
        0.25810372829437256,
        -1.488850987212565e-15
      ],
      "type": "VEC2"
    },
    {
      "bufferView": 0,
      "byteOffset": 1056,
      "componentType": 5125,
      "count": 480,
      "type": "SCALAR"
    },
    {
      "bufferView": 2,
      "byteOffset": 6768,
      "componentType": 5126,
      "count": 164,
      "max": [
        10.34506893157959,
        77.77944946289063,
        0.3567226529121399
      ],
      "min": [
        -10.256155967712402,
        70.93214416503906,
        0.3567226529121399
      ],
      "type": "VEC3"
    },
    {
      "bufferView": 2,
      "byteOffset": 8736,
      "componentType": 5126,
      "count": 164,
      "max": [
        4.91291913817804e-08,
        0.0,
        1.0
      ],
      "min": [
        -5.516624668189252e-08,
        0.0,
        1.0
      ],
      "type": "VEC3"
    },
    {
      "bufferView": 1,
      "byteOffset": 2256,
      "componentType": 5126,
      "count": 164,
      "max": [
        0.6784935593605042,
        0.0764043778181076
      ],
      "min": [
        0.3151843547821045,
        -1.488850987212565e-15
      ],
      "type": "VEC2"
    },
    {
      "bufferView": 0,
      "byteOffset": 2976,
      "componentType": 5125,
      "count": 480,
      "type": "SCALAR"
    }
  ],
  "asset": {
    "extras": {
      "author": "saad.mzm65 (https://sketchfab.com/saad.mzm65)",
      "license": "CC-BY-4.0 (http://creativecommons.org/licenses/by/4.0/)",
      "source": "https://sketchfab.com/3d-models/stop-sign-c040f197cffb49baa973c161810af26c",
      "title": "Stop Sign"
    },
    "generator": "Sketchfab-15.53.0",
    "version": "2.0"
  },
  "bufferViews": [
    {
      "buffer": 0,
      "byteLength": 4896,
      "name": "floatBufferViews",
      "target": 34963
    },
    {
      "buffer": 0,
      "byteLength": 3568,
      "byteOffset": 4896,
      "byteStride": 8,
      "name": "floatBufferViews",
      "target": 34962
    },
    {
      "buffer": 0,
      "byteLength": 10704,
      "byteOffset": 8464,
      "byteStride": 12,
      "name": "floatBufferViews",
      "target": 34962
    }
  ],
  "buffers": [
    {
      "byteLength": 19168,
      "uri": "scene.bin"
    }
  ],
  "images": [
    {
      "uri": "textures/White_baseColor.png"
    },
    {
      "uri": "textures/White_metallicRoughness.png"
    }
  ],
  "materials": [
    {
      "doubleSided": true,
      "name": "White",
      "occlusionTexture": {
        "index": 1
      },
      "pbrMetallicRoughness": {
        "baseColorTexture": {
          "index": 0
        },
        "metallicRoughnessTexture": {
          "index": 1
        }
      }
    }
  ],
  "meshes": [
    {
      "name": "Stand_White_0",
      "primitives": [
        {
          "attributes": {
            "NORMAL": 1,
            "POSITION": 0,
            "TEXCOORD_0": 2
          },
          "indices": 3,
          "material": 0,
          "mode": 4
        }
      ]
    },
    {
      "name": "SignBoard_White_0",
      "primitives": [
        {
          "attributes": {
            "NORMAL": 5,
            "POSITION": 4,
            "TEXCOORD_0": 6
          },
          "indices": 7,
          "material": 0,
          "mode": 4
        }
      ]
    },
    {
      "name": "Stop_White_0",
      "primitives": [
        {
          "attributes": {
            "NORMAL": 9,
            "POSITION": 8,
            "TEXCOORD_0": 10
          },
          "indices": 11,
          "material": 0,
          "mode": 4
        }
      ]
    },
    {
      "name": "Stop1_White_0",
      "primitives": [
        {
          "attributes": {
            "NORMAL": 13,
            "POSITION": 12,
            "TEXCOORD_0": 14
          },
          "indices": 15,
          "material": 0,
          "mode": 4
        }
      ]
    }
  ],
  "nodes": [
    {
      "children": [
        1
      ],
      "matrix": [
        1.0,
        0.0,
        0.0,
        0.0,
        0.0,
        2.220446049250313e-16,
        -1.0,
        0.0,
        0.0,
        1.0,
        2.220446049250313e-16,
        0.0,
        0.0,
        0.0,
        0.0,
        1.0
      ],
      "name": "Sketchfab_model"
    },
    {
      "children": [
        2
      ],
      "matrix": [
        0.009999999776482582,
        0.0,
        0.0,
        0.0,
        0.0,
        0.0,
        0.009999999776482582,
        0.0,
        0.0,
        -0.009999999776482582,
        0.0,
        0.0,
        0.0,
        0.0,
        0.0,
        1.0
      ],
      "name": "09f97fa435ab469e9390ca61d8c9c6a8.fbx"
    },
    {
      "children": [
        3
      ],
      "name": "RootNode"
    },
    {
      "children": [
        4,
        6,
        8,
        10
      ],
      "name": "Stop_Sign"
    },
    {
      "children": [
        5
      ],
      "name": "Stand"
    },
    {
      "mesh": 0,
      "name": "Stand_White_0"
    },
    {
      "children": [
        7
      ],
      "matrix": [
        1.0,
        0.0,
        0.0,
        0.0,
        0.0,
        1.0,
        0.0,
        0.0,
        0.0,
        0.0,
        1.0,
        0.0,
        0.0,
        -7.220249176025391,
        -0.7130159735679626,
        1.0
      ],
      "name": "SignBoard"
    },
    {
      "mesh": 1,
      "name": "SignBoard_White_0"
    },
    {
      "children": [
        9
      ],
      "matrix": [
        1.0,
        0.0,
        0.0,
        0.0,
        0.0,
        1.0,
        0.0,
        0.0,
        0.0,
        0.0,
        1.0,
        0.0,
        0.0,
        0.0,
        -0.05058473348617554,
        1.0
      ],
      "name": "Stop"
    },
    {
      "mesh": 2,
      "name": "Stop_White_0"
    },
    {
      "children": [
        11
      ],
      "matrix": [
        -1.0,
        1.2246467991473532e-16,
        -1.0106430996148606e-15,
        0.0,
        1.2246467991473517e-16,
        1.0,
        1.2246467991473532e-16,
        0.0,
        1.0106430996148606e-15,
        1.2246467991473517e-16,
        -1.0,
        0.0,
        0.0889129638671875,
        0.0,
        -0.00904445443302393,
        1.0
      ],
      "name": "Stop1"
    },
    {
      "mesh": 3,
      "name": "Stop1_White_0"
    }
  ],
  "samplers": [
    {
      "magFilter": 9729,
      "minFilter": 9987,
      "wrapS": 10497,
      "wrapT": 10497
    }
  ],
  "scene": 0,
  "scenes": [
    {
      "name": "Sketchfab_Scene",
      "nodes": [
        0
      ]
    }
  ],
  "textures": [
    {
      "sampler": 0,
      "source": 0
    },
    {
      "sampler": 0,
      "source": 1
    }
  ]
}
